<svg width="16" height="16" viewBox="0 0 16 16" fill="none" xmlns="http://www.w3.org/2000/svg">
<path d="M7.66598 1.47948C7.80516 1.20676 8.19484 1.20676 8.33402 1.47948L10.1905 5.11723C10.3539 5.43754 10.6607 5.6604 11.0158 5.71689L15.0492 6.35836C15.3516 6.40645 15.472 6.77706 15.2557 6.9937L12.3696 9.88343C12.1155 10.1379 11.9983 10.4985 12.0544 10.8537L12.6907 14.8879C12.7384 15.1903 12.4231 15.4194 12.1502 15.2806L8.5101 13.4288C8.18958 13.2657 7.81042 13.2657 7.4899 13.4288L3.84978 15.2806C3.57688 15.4194 3.26162 15.1903 3.30932 14.8879L3.94563 10.8537C4.00165 10.4985 3.88449 10.1379 3.63037 9.88343L0.744344 6.9937C0.527981 6.77706 0.6484 6.40645 0.950778 6.35836L4.98416 5.71689C5.33931 5.6604 5.64605 5.43754 5.80952 5.11723L7.66598 1.47948Z" fill="#EAEAEA" fill-opacity="0.7" stroke="#E2E2E2" stroke-width="0.75"/>
</svg>
