<svg width="200" height="200" viewBox="0 0 200 200" fill="none" xmlns="http://www.w3.org/2000/svg">
<mask id="mask0_1462_25044" style="mask-type:alpha" maskUnits="userSpaceOnUse" x="0" y="0" width="200" height="200">
<rect width="200" height="200" fill="#D9D9D9"/>
</mask>
<g mask="url(#mask0_1462_25044)">
<path d="M83.1089 150H116.891C117.991 139.987 123.101 131.721 131.397 122.688C132.331 121.672 138.323 115.47 139.034 114.584C146.098 105.776 150 94.875 150 83.3333C150 55.7191 127.614 33.3333 99.9999 33.3333C72.3857 33.3333 49.9999 55.7191 49.9999 83.3333C49.9999 94.8692 53.8978 105.764 60.9551 114.57C61.6669 115.458 67.6733 121.677 68.5961 122.682C76.8971 131.72 82.0085 139.987 83.1089 150ZM116.667 166.667H83.3333V175H116.667V166.667ZM47.9495 124.993C38.8037 113.581 33.3333 99.0958 33.3333 83.3333C33.3333 46.5143 63.1809 16.6667 99.9999 16.6667C136.819 16.6667 166.667 46.5143 166.667 83.3333C166.667 99.1042 161.19 113.596 152.036 125.012C146.867 131.457 133.333 141.667 133.333 154.167V175C133.333 184.205 125.872 191.667 116.667 191.667H83.3333C74.1285 191.667 66.6666 184.205 66.6666 175V154.167C66.6666 141.667 53.1214 131.447 47.9495 124.993Z" fill="rgba(77, 145, 255, 0.9)"/>
</g>
</svg>
