<svg width="31" height="32" viewBox="0 0 31 32" fill="none" xmlns="http://www.w3.org/2000/svg">
<path d="M7.68782 6.95812C7.10916 6.38058 6.81982 5.68444 6.81982 4.8697C6.81982 4.05496 7.10916 3.35882 7.68782 2.78128C8.26649 2.18312 8.95882 1.88403 9.76482 1.88403C10.5708 1.88403 11.2632 2.18312 11.8418 2.78128L23.3738 14.3527C23.6632 14.6002 23.8647 14.9096 23.9783 15.2809C24.092 15.6521 24.1385 16.044 24.1178 16.4566C24.0972 16.8691 24.0093 17.2765 23.8543 17.6787C23.6993 18.0809 23.4772 18.4264 23.1878 18.7152L11.8418 30.1009C11.2632 30.6991 10.5708 30.9982 9.76482 30.9982C8.95882 30.9982 8.26649 30.6991 7.68782 30.1009C7.39849 29.8122 7.18149 29.4873 7.03682 29.1263C6.89216 28.7654 6.81982 28.3941 6.81982 28.0125C6.81982 27.6309 6.89216 27.2545 7.03682 26.8832C7.18149 26.5119 7.39849 26.1819 7.68782 25.8931L17.0498 16.4256L7.68782 6.95812Z" fill="#50BAFF"/>
</svg>
