<svg width="18" height="18" viewBox="0 0 18 18" fill="none" xmlns="http://www.w3.org/2000/svg">
<path d="M7.47981 13.5H10.5202C10.6192 12.5988 11.0791 11.8549 11.8257 11.042C11.9098 10.9504 12.4491 10.3923 12.5131 10.3126C13.1488 9.51982 13.5 8.53875 13.5 7.5C13.5 5.01472 11.4853 3 9 3C6.51472 3 4.5 5.01472 4.5 7.5C4.5 8.53823 4.85081 9.51877 5.48597 10.3113C5.55003 10.3912 6.09061 10.9509 6.17365 11.0413C6.92074 11.8548 7.38077 12.5988 7.47981 13.5ZM10.5 15H7.5V15.75H10.5V15ZM4.31546 11.2494C3.49234 10.2223 3 8.91862 3 7.5C3 4.18629 5.68629 1.5 9 1.5C12.3137 1.5 15 4.18629 15 7.5C15 8.91937 14.5071 10.2236 13.6832 11.251C13.218 11.8311 12 12.75 12 13.875V15.75C12 16.5785 11.3285 17.25 10.5 17.25H7.5C6.67157 17.25 6 16.5785 6 15.75V13.875C6 12.75 4.78094 11.8302 4.31546 11.2494ZM9.75 7.5036H11.625L8.25 12.0036V9.0036H6.375L9.75 4.5V7.5036Z" fill="white"/>
</svg>
